# xmcd
#
# Track frame offsets:
#	150
#	18773
#	44094
#	66766
#	96221
#	119297
#	157870
#	185326
#	202287
#	223825
#	246803
#
# Disc length: 3686 seconds
#
# Revision: 27
# Processed by: cddbd v1.5.2PL0 Copyright (c) Steve Scherf et al.
# Submitted via: Jack! The Knife 20 Magnifico
#
DISCID=9c0e640b
DTITLE=Dio - Lock Up The Wolves
DYEAR=1990
DGENRE=Metal
TTITLE0=Wild One
TTITLE1=Born On The Sun
TTITLE2=Hey Angel
TTITLE3=Between Two Hearts
TTITLE4=Night Music
TTITLE5=Lock Up The Wolves
TTITLE6=Evil On Queen Street
TTITLE7=Walk On Water
TTITLE8=Twisted
TTITLE9=Why Are They Watching Me
TTITLE10=My Eyes
EXTD=Tony Platt and Ronnie James Dio
EXTT0=Dio, Robertson
EXTT1=Dio, Robertson, Bain, Appice
EXTT2=Dio, Robertson
EXTT3=Dio, Robertson
EXTT4=Dio, Robertson, Bain
EXTT5=Dio, Robertson, Bain
EXTT6=Dio, Robertson, Cook
EXTT7=Dio, Robertson, Johansson
EXTT8=Dio, Robertson, Bain, Appice
EXTT9=Dio, Robertson
EXTT10=Dio, Robertson, Johansson
PLAYORDER=
